{"title":"The.Walking.Dead.Season.06.WEBRip.1080p.6ch.x265.10bit.[S-Less]","uid":14327725,"size":6777257332,"categoryP":"video","categoryS":"hd___tv_shows","magnet":"?xt=urn:btih:e3962783478d4cce775cff4d951fe0d45ed82335&amp;dn=The.Walking.Dead.Season.06.WEBRip.1080p.6ch.x265.10bit.%5BS-Less%5D&amp;tr=udp%3A%2F%2Ftracker.leechers-paradise.org%3A6969&amp;tr=udp%3A%2F%2Fzer0day.ch%3A1337&amp;tr=udp%3A%2F%2Fopen.demonii.com%3A1337&amp;tr=udp%3A%2F%2Ftracker.coppersurfer.tk%3A6969&amp;tr=udp%3A%2F%2Fexodus.desync.com%3A6969","seeders":6,"leechers":3,"uploader":"soulessness","files":16,"time":1460668448,"description":"The.Walking.Dead.S06.Complete.WEBRip.1080p.6ch.x265.10bit.[S-Less]\r\n\r\nVideo: 1916x1076 x265 10bit\r\nAudio: 5.1 English\r\nSubtitles: English\r\n\r\nEp1. First Time Again \r\nStill reeling from the deaths of Reg and Pete, Rick and the group devise a plan to lure a massive herd of walkers away from Alexandria, but a new development puts the entire community at risk. \r\n\r\nEp2. JSS \r\nCarol and Morgan lead a line of defense against The Wolves when Alexandria comes under attack, as Enid's past comes to light. \r\n\r\nEp3. Thank You \r\nIn a race against time, Glenn and Michonne try to lead the Alexandrians back home before the herd catches up to them. \r\n\r\nEp4. Here's Not Here \r\nMorgan tells the Alpha Wolf about his journey from King County to Alexandria, where he met a lone survivor with a code. \r\n\r\nEp5. Now \r\nAlexandria recovers from the Wolves' attack. Maggie and Aaron search for Glenn. Deanna questions her leadership. \r\n\r\nEp6. Always Accountable \r\nWounded after being separated from Abraham and Sasha, Daryl finds himself captive of three survivors on the run. \r\n\r\nEp7. Heads Up \r\nGlenn and Enid make their way back to Alexandria. Meanwhile, Spencer puts his life a risk, as the herd finds its way inside the safe-zone. \r\n\r\nEp8. Start to Finish \r\nWith the walls down, Alexandria finds itself swarmed by walkers. Meanwhile, the tension between Carol and Morgan comes to head, as the Alpha Wolf makes his move. \r\n\r\nEp9. No Way Out \r\nDaryl, Abraham and Sasha face-off against the Saviors. Back at Alexandria, Rick and his group make their way through the herd, as Denise finds herself at the hands of the Alpha Wolf. \r\n\r\nEp10. The Next World \r\nRick and Daryl cross paths with Jesus, a mysterious man with many secrets. Meanwhile, Michonne helps Spencer find closure, as Carl recovers from his injury. \r\n\r\nEp11. Knots Untie \r\nJesus takes Rick and the group to the Hilltop Colony, a peaceful community overshadowed by the power of Negan and The Saviors. \r\n\r\nEp12. Not Tomorrow Yet \r\nBack from the Hilltop, Rick rallies Alexandria to a surprise attack on the Saviors' compound. Gabriel steps it up, as two group members are captured. \r\n\r\nEp13. The Same Boat \r\nCarol and Maggie must fight for their lives after being taken by a group of Saviors. \r\n\r\nEp14. Twice as Far \r\nAfter a minor victory against The Saviors, a supply run led by Daryl turns chaotic when he and his group cross paths with Dwight. \r\n\r\nEp15. East \r\nRick and Morgan set out in the search for Carol. Meanwhile, Daryl and Rosita track down Dwight, as Glenn and Michonne fall into a trap. \r\n\r\nEp16. Last Day on Earth \r\nMorgan makes a sacrifice in order to save Carol. Meanwhile, Rick and the group travel to the Hilltop with an ailing Maggie, as the confrontation with Negan looms near. \r\n\r\nMediaInfo:\r\n\r\nVideo\r\nID : 1\r\nFormat : HEVC\r\nFormat/Info : High Efficiency Video Coding\r\nFormat profile : Main   @Main\r\nCodec ID : V_MPEGH/ISO/HEVC\r\nDuration : 1h 4mn\r\nBit rate : 1 146 Kbps\r\nWidth : 1 916 pixels\r\nHeight : 1 076 pixels\r\nDisplay aspect ratio : 16:9\r\nFrame rate mode : Constant\r\nFrame rate : 23.976 (24000/1001) fps\r\nColor space : YUV\r\nChroma subsampling : 4:2:0\r\nBit depth : 10 bits\r\nBits/(Pixel*Frame) : 0.023\r\nStream size : 530 MiB (86%)\r\nWriting library : x265 1.8+2-55a4a9b920ff:[Windows][GCC 5.2.0][64 bit] 10bit\r\nDefault : Yes\r\nForced : No\r\n\r\nAudio\r\nID : 2\r\nFormat : AAC\r\nFormat/Info : Advanced Audio Codec\r\nFormat profile : HE-AAC / LC\r\nCodec ID : A_AAC\r\nDuration : 1h 4mn\r\nBit rate : 192 Kbps\r\nChannel(s) : 6 channels\r\nChannel positions : Front: L C R, Side: L R, LFE\r\nSampling rate : 48.0 KHz / 24.0 KHz\r\nFrame rate : 23.438 fps (1024 spf)\r\nCompression mode : Lossy\r\nDelay relative to video : 31ms\r\nStream size : 88.7 MiB (14%)\r\nLanguage : English\r\nDefault : Yes\r\nForced : No\r\n\r\nText\r\nID : 3\r\nFormat : UTF-8\r\nCodec ID : S_TEXT/UTF8\r\nCodec ID/Info : UTF-8 Plain Text\r\nDuration : 1h 2mn\r\nBit rate : 42 bps\r\nCount of elements : 697\r\nStream size : 19.7 KiB (0%)\r\nLanguage : English\r\nDefault : Yes\r\nForced : No","torrent":{"xt":"urn:btih:e3962783478d4cce775cff4d951fe0d45ed82335","amp;dn":"The.Walking.Dead.Season.06.WEBRip.1080p.6ch.x265.10bit.%5BS-Less%5D","amp;tr":["udp%3A%2F%2Ftracker.leechers-paradise.org%3A6969","udp%3A%2F%2Fzer0day.ch%3A1337","udp%3A%2F%2Fopen.demonii.com%3A1337","udp%3A%2F%2Ftracker.coppersurfer.tk%3A6969","udp%3A%2F%2Fexodus.desync.com%3A6969"],"infoHash":"e3962783478d4cce775cff4d951fe0d45ed82335","infoHashBuffer":{"type":"Buffer","data":[227,150,39,131,71,141,76,206,119,92,255,77,149,31,224,212,94,216,35,53]},"announce":[],"urlList":[]}}